<svg width="109" height="118" viewBox="0 0 109 118" fill="none" xmlns="http://www.w3.org/2000/svg">
<g filter="url(#filter0_d_338_145)">
<g opacity="0.6" filter="url(#filter1_b_338_145)">
<path d="M61.1345 55.3761C58.9943 54.1113 58.7766 51.4664 58.9353 50.302L48.703 50.0037C49.2157 51.8222 47.2304 54.0522 46.1736 54.9399C45.1749 55.5788 42.6885 56.7047 41.7611 57.6503C40.8852 58.5432 40.2425 60.445 40.1914 61.4455L39.2882 97.2408C39.4696 98.2481 40.495 100.449 43.1447 101.194C46.4569 102.126 57.6215 102.368 61.5939 101.732C64.7718 101.224 65.5553 99.4818 65.5498 98.6744C65.8648 87.2163 66.4897 63.8823 66.4698 62.2117C66.4499 60.5411 65.5959 58.9297 65.1714 58.3328C64.7175 57.8743 63.2747 56.6409 61.1345 55.3761Z" fill="white"/>
<path d="M65.2222 98.676L65.222 98.6759L65.2224 98.6641C65.5375 87.1984 66.1621 63.8765 66.1423 62.215C66.1238 60.6605 65.3301 59.1359 64.9226 58.5528C64.4698 58.1016 63.0608 56.902 60.9716 55.6674C59.8136 54.983 59.1814 53.9266 58.861 52.9035C58.5997 52.0688 58.5413 51.2436 58.5759 50.6278L49.1005 50.3515C49.1919 51.2715 48.8002 52.2131 48.302 53.0039C47.7154 53.9351 46.9298 54.7396 46.3815 55.2003L46.3652 55.214L46.3474 55.2254C46.0154 55.4377 45.5185 55.7053 44.9798 55.9953C44.6913 56.1507 44.3908 56.3125 44.0972 56.4758C43.2281 56.9591 42.4172 57.4558 41.9922 57.8891C41.5998 58.2892 41.2404 58.9397 40.9713 59.6327C40.7036 60.3221 40.5426 61.0081 40.5187 61.4597L39.6165 97.2139C39.7979 98.143 40.7608 100.175 43.2306 100.87C44.8424 101.323 48.4225 101.617 52.1293 101.715C55.829 101.812 59.5878 101.713 61.5427 101.4C64.6128 100.909 65.2263 99.268 65.2222 98.676Z" stroke="black" stroke-opacity="0.43" stroke-width="0.664187"/>
</g>
<g filter="url(#filter2_f_338_145)">
<path d="M61.5781 88.6737L62.1931 64.2994C62.4094 62.8905 62.2395 60.0051 59.83 59.735" stroke="black" stroke-opacity="0.43" stroke-width="2.32465"/>
</g>
</g>
<g opacity="0.6" filter="url(#filter3_b_338_145)">
<ellipse cx="9.21388" cy="3.05838" rx="9.21388" ry="3.05838" transform="matrix(0.985868 0.0206615 -0.0183621 1.01237 44.2676 41.793)" fill="white"/>
<path d="M62.1164 45.2644C62.1108 45.5735 61.9211 45.9074 61.4849 46.2448C61.0519 46.5798 60.4122 46.888 59.6005 47.1461C57.9799 47.6613 55.7319 47.9585 53.2438 47.9063C50.7557 47.8542 48.5202 47.463 46.9195 46.8803C46.1178 46.5884 45.4898 46.2536 45.0692 45.9008C44.6456 45.5453 44.4682 45.2037 44.4738 44.8947C44.4794 44.5856 44.6691 44.2517 45.1052 43.9143C45.5383 43.5793 46.178 43.2711 46.9897 43.013C48.6103 42.4978 50.8582 42.2006 53.3464 42.2528C55.8345 42.3049 58.07 42.696 59.6706 43.2788C60.4723 43.5706 61.1004 43.9054 61.521 44.2583C61.9446 44.6138 62.122 44.9553 62.1164 45.2644Z" stroke="black" stroke-opacity="0.43" stroke-width="0.532237"/>
</g>
<g opacity="0.6" filter="url(#filter4_b_338_145)">
<ellipse cx="7.32062" cy="2.14086" rx="7.32062" ry="2.14086" transform="matrix(0.985868 0.0206615 -0.0183621 1.01237 46.4902 42.7695)" fill="white"/>
<path d="M60.6229 45.2339C60.6199 45.3993 60.5027 45.6116 60.1576 45.8464C59.8206 46.0757 59.3179 46.2888 58.6746 46.4675C57.3916 46.824 55.6089 47.0274 53.6337 46.9861C51.6584 46.9447 49.8844 46.6666 48.6153 46.2567C47.979 46.0511 47.4845 45.8171 47.156 45.5739C46.8197 45.3248 46.7103 45.1078 46.7133 44.9424C46.7163 44.7769 46.8335 44.5646 47.1786 44.3299C47.5156 44.1006 48.0183 43.8875 48.6615 43.7088C49.9445 43.3523 51.7272 43.1488 53.7025 43.1902C55.6778 43.2316 57.4518 43.5096 58.7209 43.9196C59.3571 44.1251 59.8517 44.3591 60.1802 44.6023C60.5165 44.8514 60.6259 45.0684 60.6229 45.2339Z" stroke="black" stroke-opacity="0.43" stroke-width="0.532237"/>
</g>
<g filter="url(#filter5_b_338_145)">
<path d="M44.0786 52.2794L44.207 45.1992C48.1797 48.5479 57.1797 49.0479 62.3744 45.58L62.246 52.6602C55.1777 59.0479 49.1797 57.0479 44.0786 52.2794Z" fill="white"/>
<path d="M52.4492 56.3851C49.5425 56.0987 46.8483 54.4834 44.3432 52.1623L44.4597 45.7373C46.5231 47.2571 49.6216 48.1113 52.8246 48.2151C56.0809 48.3207 59.4942 47.6527 62.103 46.0699L61.9858 52.5357C58.5249 55.6333 55.3559 56.6715 52.4492 56.3851Z" stroke="black" stroke-opacity="0.43" stroke-width="0.532237"/>
</g>
<path d="M54 32.2918C53.6006 31.8921 49.5002 40.4593 47.5 44.7928L59.5 44.7928C57.8331 40.7924 54.3994 32.6916 54 32.2918Z" fill="white" stroke="black" stroke-opacity="0.43"/>
<circle cx="53.5" cy="25.5" r="2" fill="white" stroke="#306E96"/>
<circle cx="48.5" cy="18.5" r="2" fill="white" stroke="#306E96"/>
<circle cx="43.5" cy="11.5" r="2" fill="white" stroke="#306E96"/>
<circle cx="53.5" cy="11.5" r="2" fill="white" stroke="#306E96"/>
<circle cx="63.5" cy="11.5" r="2" fill="white" stroke="#306E96"/>
<circle cx="58.5" cy="18.5" r="2" fill="white" stroke="#306E96"/>
<defs>
<filter id="filter0_d_338_145" x="30.5537" y="47.5081" width="44.6525" height="69.5538" filterUnits="userSpaceOnUse" color-interpolation-filters="sRGB">
<feFlood flood-opacity="0" result="BackgroundImageFix"/>
<feColorMatrix in="SourceAlpha" type="matrix" values="0 0 0 0 0 0 0 0 0 0 0 0 0 0 0 0 0 0 127 0" result="hardAlpha"/>
<feOffset dy="6.23958"/>
<feGaussianBlur stdDeviation="4.3677"/>
<feComposite in2="hardAlpha" operator="out"/>
<feColorMatrix type="matrix" values="0 0 0 0 0 0 0 0 0 0 0 0 0 0 0 0 0 0 0.25 0"/>
<feBlend mode="normal" in2="BackgroundImageFix" result="effect1_dropShadow_338_145"/>
<feBlend mode="normal" in="SourceGraphic" in2="effect1_dropShadow_338_145" result="shape"/>
</filter>
<filter id="filter1_b_338_145" x="12.7216" y="23.4364" width="80.3166" height="105.218" filterUnits="userSpaceOnUse" color-interpolation-filters="sRGB">
<feFlood flood-opacity="0" result="BackgroundImageFix"/>
<feGaussianBlur in="BackgroundImageFix" stdDeviation="13.2837"/>
<feComposite in2="SourceAlpha" operator="in" result="effect1_backgroundBlur_338_145"/>
<feBlend mode="normal" in="SourceGraphic" in2="effect1_backgroundBlur_338_145" result="shape"/>
</filter>
<filter id="filter2_f_338_145" x="58.7127" y="57.5691" width="5.69178" height="32.1342" filterUnits="userSpaceOnUse" color-interpolation-filters="sRGB">
<feFlood flood-opacity="0" result="BackgroundImageFix"/>
<feBlend mode="normal" in="SourceGraphic" in2="BackgroundImageFix" result="shape"/>
<feGaussianBlur stdDeviation="0.49814" result="effect1_foregroundBlur_338_145"/>
</filter>
<filter id="filter3_b_338_145" x="22.9215" y="20.6881" width="60.7469" height="48.7831" filterUnits="userSpaceOnUse" color-interpolation-filters="sRGB">
<feFlood flood-opacity="0" result="BackgroundImageFix"/>
<feGaussianBlur in="BackgroundImageFix" stdDeviation="10.6447"/>
<feComposite in2="SourceAlpha" operator="in" result="effect1_backgroundBlur_338_145"/>
<feBlend mode="normal" in="SourceGraphic" in2="effect1_backgroundBlur_338_145" result="shape"/>
</filter>
<filter id="filter4_b_338_145" x="25.1617" y="21.6256" width="57.0126" height="46.9247" filterUnits="userSpaceOnUse" color-interpolation-filters="sRGB">
<feFlood flood-opacity="0" result="BackgroundImageFix"/>
<feGaussianBlur in="BackgroundImageFix" stdDeviation="10.6447"/>
<feComposite in2="SourceAlpha" operator="in" result="effect1_backgroundBlur_338_145"/>
<feBlend mode="normal" in="SourceGraphic" in2="effect1_backgroundBlur_338_145" result="shape"/>
</filter>
<filter id="filter5_b_338_145" x="22.7886" y="23.9097" width="60.8758" height="54.0799" filterUnits="userSpaceOnUse" color-interpolation-filters="sRGB">
<feFlood flood-opacity="0" result="BackgroundImageFix"/>
<feGaussianBlur in="BackgroundImageFix" stdDeviation="10.6447"/>
<feComposite in2="SourceAlpha" operator="in" result="effect1_backgroundBlur_338_145"/>
<feBlend mode="normal" in="SourceGraphic" in2="effect1_backgroundBlur_338_145" result="shape"/>
</filter>
</defs>
</svg>
