<svg width="109" height="117" viewBox="0 0 109 117" fill="none" xmlns="http://www.w3.org/2000/svg">
<g filter="url(#filter0_i_388_472)">
<path fill-rule="evenodd" clip-rule="evenodd" d="M60.3821 17.0442C61.7943 16.8397 62.9148 18.0936 62.7404 19.5097L62.6769 20.0256C62.4853 21.5815 63.5912 22.9981 65.1471 23.1898C66.703 23.3814 68.1197 22.2755 68.3113 20.7195L68.3466 20.4331C68.5361 18.8949 70.048 17.8683 71.4757 18.4714C71.9092 18.6545 72.3354 18.8518 72.7539 19.0627C73.4299 19.4034 73.6061 20.27 73.1589 20.8807C72.2063 22.1816 72.4192 24.0952 73.6342 25.155C74.8493 26.2148 76.6065 26.0194 77.5591 24.7185C78.0873 23.9972 79.1393 23.9214 79.7155 24.605C80.4495 25.4757 81.1244 26.4047 81.7348 27.3841C81.9685 27.7589 81.8294 28.2492 81.441 28.4596C79.9639 29.2599 79.3085 31.1579 79.9772 32.699C80.646 34.2402 82.3855 34.8408 83.8626 34.0405C84.2115 33.8515 84.6462 34.0324 84.7464 34.4164C85.185 36.0973 85.4631 37.8481 85.5642 39.645C85.6179 40.5996 84.7737 41.3349 83.8249 41.2163C82.1134 41.0023 80.5529 42.2164 80.3394 43.928C80.126 45.6396 81.3404 47.2006 83.052 47.4146C84.0069 47.534 84.6497 48.4588 84.3638 49.3777C83.8613 50.9928 83.2169 52.5303 82.4489 53.9746C82.1289 54.5765 81.3142 54.6584 80.8542 54.1553C79.7291 52.9247 77.9079 52.9275 76.7865 54.1614C75.6651 55.3954 75.6682 57.3933 76.7933 58.6238C77.4881 59.3837 77.469 60.5621 76.6905 61.2359C76.6747 61.2496 76.6589 61.2633 76.643 61.2769L67.208 52.9025C71.2053 51.4458 74.2603 47.8595 74.815 43.3564C75.6036 36.9536 71.0384 31.1221 64.6184 30.3314C58.6323 29.5941 53.1472 33.4995 51.7938 39.2211L42.5642 31.029C42.9331 30.2206 43.3394 29.4376 43.7803 28.6826C43.9423 28.4053 44.3183 28.3531 44.5551 28.57C45.7939 29.7048 47.6272 29.5442 48.6499 28.2114C49.6725 26.8786 49.4974 24.8783 48.2586 23.7436C48.0523 23.5546 48.0461 23.231 48.2495 23.0389C49.2237 22.1189 50.2652 21.2869 51.3625 20.5527C51.9213 20.1787 52.6704 20.4318 52.9241 21.0545C53.5326 22.5476 55.1898 23.1636 56.6257 22.4303C58.0617 21.6971 58.7325 19.8922 58.124 18.3991C57.948 17.9672 58.1883 17.4773 58.6426 17.3718C59.2162 17.2385 59.7964 17.1291 60.3821 17.0442Z" fill="url(#paint0_linear_388_472)"/>
</g>
<path d="M68.3147 60.4844L72.4573 62.8761V67.6596L68.3147 70.0513L64.1721 67.6596V62.8761L68.3147 60.4844Z" fill="#D9D9D9"/>
<path d="M37.2188 99.791L37.2449 92.0512C37.2538 89.4094 39.4026 87.275 42.0444 87.2839L94.2159 87.4598C96.8578 87.4687 98.9922 89.6176 98.9833 92.2594L98.9571 99.9992L37.2188 99.791Z" fill="url(#paint1_linear_388_472)"/>
<path fill-rule="evenodd" clip-rule="evenodd" d="M61.3131 71.4902C62.5701 73.7621 64.9772 75.3352 67.7126 75.3873C71.0902 75.4516 73.8803 73.1761 74.5924 70.0508C75.1706 71.0998 75.5038 72.2965 75.5122 73.5592L75.6026 87.1589L61.2293 86.7124L61.1388 73.1127C61.1351 72.5527 61.1955 72.0096 61.3131 71.4902Z" fill="url(#paint2_linear_388_472)"/>
<path fill-rule="evenodd" clip-rule="evenodd" d="M73.0637 59.6203L41.4689 31.248L31.8594 41.949L63.4541 70.3213C66.4091 72.9749 70.9558 72.7306 73.6094 69.7756C76.263 66.8206 76.0187 62.2739 73.0637 59.6203ZM67.5121 60.8861C67.8474 60.6425 68.3015 60.6425 68.6368 60.8861L71.834 63.209C72.1693 63.4526 72.3096 63.8844 72.1815 64.2786L70.9603 68.0372C70.8322 68.4314 70.4649 68.6982 70.0504 68.6982H66.0984C65.684 68.6982 65.3167 68.4314 65.1886 68.0372L63.9673 64.2786C63.8393 63.8844 63.9796 63.4526 64.3149 63.209L67.5121 60.8861ZM70.2264 65.026C70.2264 66.2149 69.2627 67.1786 68.0738 67.1786C66.885 67.1786 65.9213 66.2149 65.9213 65.026C65.9213 63.8372 66.885 62.8735 68.0738 62.8735C69.2627 62.8735 70.2264 63.8372 70.2264 65.026Z" fill="url(#paint3_linear_388_472)"/>
<path fill-rule="evenodd" clip-rule="evenodd" d="M23.9458 26.2701L10.4004 46.0035L18.6299 51.7084L34.3908 34.5949C37.0121 31.7487 36.6821 27.2795 33.6711 24.8492C30.6347 22.3983 26.1541 23.0529 23.9458 26.2701ZM29.8057 31.3056C30.9945 31.3056 31.9583 30.3418 31.9583 29.153C31.9583 27.9642 30.9945 27.0004 29.8057 27.0004C28.6169 27.0004 27.6531 27.9642 27.6531 29.153C27.6531 30.3418 28.6169 31.3056 29.8057 31.3056Z" fill="url(#paint4_linear_388_472)"/>
<rect x="11.3906" y="65.2676" width="3.82678" height="6.69686" rx="1.91339" fill="url(#paint5_linear_388_472)"/>
<path d="M9 52.8299C9 52.5657 9.21416 52.3516 9.47835 52.3516H17.1319C17.3961 52.3516 17.6102 52.5657 17.6102 52.8299V65.7453C17.6102 66.802 16.7536 67.6587 15.6969 67.6587H10.9134C9.85665 67.6587 9 66.802 9 65.7453V52.8299Z" fill="url(#paint6_linear_388_472)"/>
<defs>
<filter id="filter0_i_388_472" x="42.5645" y="17.0215" width="43.8033" height="45.0572" filterUnits="userSpaceOnUse" color-interpolation-filters="sRGB">
<feFlood flood-opacity="0" result="BackgroundImageFix"/>
<feBlend mode="normal" in="SourceGraphic" in2="BackgroundImageFix" result="shape"/>
<feColorMatrix in="SourceAlpha" type="matrix" values="0 0 0 0 0 0 0 0 0 0 0 0 0 0 0 0 0 0 127 0" result="hardAlpha"/>
<feOffset dx="1.00171" dy="0.801371"/>
<feGaussianBlur stdDeviation="0.400685"/>
<feComposite in2="hardAlpha" operator="arithmetic" k2="-1" k3="1"/>
<feColorMatrix type="matrix" values="0 0 0 0 0 0 0 0 0 0 0 0 0 0 0 0 0 0 0.25 0"/>
<feBlend mode="normal" in2="shape" result="effect1_innerShadow_388_472"/>
</filter>
<linearGradient id="paint0_linear_388_472" x1="67.0855" y1="17.5145" x2="61.9431" y2="61.2428" gradientUnits="userSpaceOnUse">
<stop stop-color="#306E96"/>
<stop offset="1" stop-color="#0D3C6B"/>
</linearGradient>
<linearGradient id="paint1_linear_388_472" x1="38.298" y1="92.4219" x2="77.3145" y2="122.029" gradientUnits="userSpaceOnUse">
<stop stop-color="#306E96"/>
<stop offset="1" stop-color="#0D3C6B"/>
</linearGradient>
<linearGradient id="paint2_linear_388_472" x1="69.6539" y1="70.343" x2="66.6788" y2="86.799" gradientUnits="userSpaceOnUse">
<stop stop-color="#306E96"/>
<stop offset="1" stop-color="#0D3C6B"/>
</linearGradient>
<linearGradient id="paint3_linear_388_472" x1="57.5222" y1="31.9468" x2="51.8093" y2="71.7682" gradientUnits="userSpaceOnUse">
<stop stop-color="#306E96"/>
<stop offset="1" stop-color="#0D3C6B"/>
</linearGradient>
<linearGradient id="paint4_linear_388_472" x1="25.5664" y1="23.8474" x2="20.9614" y2="51.2288" gradientUnits="userSpaceOnUse">
<stop stop-color="#306E96"/>
<stop offset="1" stop-color="#0D3C6B"/>
</linearGradient>
<linearGradient id="paint5_linear_388_472" x1="13.6435" y1="65.3819" x2="11.983" y2="71.5899" gradientUnits="userSpaceOnUse">
<stop stop-color="#306E96"/>
<stop offset="1" stop-color="#0D3C6B"/>
</linearGradient>
<linearGradient id="paint6_linear_388_472" x1="14.069" y1="52.613" x2="10.2215" y2="66.7724" gradientUnits="userSpaceOnUse">
<stop stop-color="#306E96"/>
<stop offset="1" stop-color="#0D3C6B"/>
</linearGradient>
</defs>
</svg>
