<svg width="109" height="117" viewBox="0 0 109 117" fill="none" xmlns="http://www.w3.org/2000/svg">
<g filter="url(#filter0_i_383_392)">
<path fill-rule="evenodd" clip-rule="evenodd" d="M38.1435 63.613C38.2907 62.7301 37.6219 61.9143 36.7314 62.0048C36.3623 62.0423 35.996 62.0953 35.6333 62.1635C35.3454 62.2175 35.1815 62.5185 35.2804 62.7942V62.7942C35.6217 63.7461 35.1531 64.8591 34.2336 65.2802C33.3142 65.7013 32.2921 65.2709 31.9508 64.319V64.319C31.8084 63.9218 31.3456 63.7432 30.9853 63.9626C30.2776 64.3937 29.6024 64.8876 28.967 65.4385C28.8351 65.5529 28.8304 65.7548 28.9539 65.8781V65.8781C29.6998 66.6224 29.7561 67.8805 29.0796 68.6884C28.403 69.4962 27.2499 69.5477 26.504 68.8035V68.8035C26.3621 68.662 26.1263 68.6845 26.018 68.8531C25.4104 69.7982 24.8908 70.8208 24.475 71.9083C24.1893 72.6553 24.6915 73.4465 25.4801 73.5795V73.5795C26.5469 73.7594 27.2661 74.7701 27.0866 75.8369C26.907 76.9038 25.8966 77.6228 24.8298 77.4429V77.4429C24.0473 77.3109 23.3201 77.8916 23.3485 78.6847C23.3759 79.449 23.4547 80.2014 23.5819 80.9369C23.6735 81.4663 24.2702 81.7162 24.7304 81.4389V81.4389C25.6261 80.8991 26.7209 81.2249 27.1757 82.1667C27.6305 83.1085 27.273 84.3095 26.3772 84.8493V84.8493C25.6819 85.2683 25.4243 86.1606 25.8639 86.8432C25.9992 87.0534 26.1394 87.2596 26.2843 87.4619C26.6564 87.981 27.4115 87.9737 27.8169 87.4801V87.4801C28.4594 86.6977 29.5673 86.6369 30.2915 87.3445C31.0157 88.0521 31.0819 89.26 30.4394 90.0425V90.0425C30.0676 90.4952 30.1611 91.1722 30.6688 91.4644C31.0321 91.6736 31.406 91.8658 31.7899 92.0403C32.5737 92.3964 33.4365 91.8629 33.5781 91.0137V91.0137C33.7398 90.0438 34.6572 89.3887 35.627 89.5504C36.5969 89.7121 37.252 90.6295 37.0903 91.5994V91.5994C36.9487 92.4485 37.5917 93.233 38.4486 93.1504C38.9495 93.1022 39.4454 93.0252 39.9345 92.9209C40.3045 92.8419 40.5058 92.4492 40.3735 92.0947V92.0947C40.0197 91.1461 40.4742 90.025 41.3888 89.5907C42.3034 89.1564 43.3317 89.5734 43.6856 90.522V90.522C43.8463 90.9528 44.3567 91.1362 44.7399 90.8821C45.0912 90.649 45.4338 90.4001 45.7666 90.1361C46.2736 89.7341 46.3172 88.9947 45.9013 88.4989V88.4989C45.2292 87.6977 45.2808 86.4456 46.0165 85.7024C46.7523 84.9592 47.8936 85.0062 48.5657 85.8074V85.8074C48.8414 86.136 49.3557 86.1064 49.573 85.7366C50.0922 84.8532 50.5366 83.9083 50.8944 82.911C51.0986 82.3418 50.7199 81.7439 50.1235 81.6433V81.6433C49.0567 81.4634 48.3375 80.4527 48.5171 79.3859C48.6966 78.319 49.707 77.6 50.7738 77.7799V77.7799C51.3664 77.8798 51.9163 77.4407 51.9081 76.8398C51.8928 75.7117 51.7653 74.6078 51.5357 73.5433C51.4831 73.2996 51.2151 73.1744 50.991 73.2837V73.2837C50.044 73.7456 48.97 73.3227 48.5922 72.3391C48.2144 71.3554 48.6758 70.1836 49.6229 69.7216V69.7216C49.8722 69.6 49.9726 69.2961 49.8361 69.0546C49.48 68.4251 49.0823 67.8254 48.646 67.2606C48.303 66.8165 47.6414 66.8359 47.2909 67.274V67.274C46.6591 68.0637 45.5528 68.1391 44.8197 67.4425C44.0866 66.7458 44.0045 65.541 44.6362 64.7513V64.7513C44.933 64.3803 44.8457 63.8321 44.4309 63.6004C44.1743 63.457 43.9125 63.322 43.6458 63.1957C42.767 62.7794 41.7918 63.3825 41.6319 64.3416L41.6025 64.5177C41.4408 65.4876 40.5235 66.1427 39.5536 65.981C38.5837 65.8192 37.9286 64.9019 38.0903 63.932L38.1435 63.613ZM37.3001 79.502C38.27 79.6638 39.2005 78.9298 39.3784 77.8627C39.5564 76.7955 38.9144 75.7994 37.9445 75.6376C36.9746 75.4759 36.0441 76.2099 35.8662 77.277C35.6882 78.3441 36.3302 79.3403 37.3001 79.502Z" fill="url(#paint0_linear_383_392)"/>
</g>
<g filter="url(#filter1_i_383_392)">
<path d="M47.3805 91.2308C47.852 91.9893 48.8547 92.2278 49.5655 91.6871C51.4162 90.2793 52.9713 88.5037 54.1401 86.4548C55.5794 83.9317 56.3911 81.0673 56.5074 78.1013C56.6236 75.1353 56.041 72.1537 54.8083 69.4058C53.5756 66.658 51.7286 64.2237 49.4217 62.3066C47.1148 60.3894 44.415 59.045 41.5481 58.3859C38.6813 57.7268 35.7306 57.772 32.9427 58.5178C30.1549 59.2636 27.6109 60.6883 25.5236 62.6728C23.7976 64.3137 22.4252 66.298 21.4807 68.508C21.1474 69.2877 21.5675 70.1637 22.3592 70.4674V70.4674C23.2043 70.7915 24.1417 70.3394 24.52 69.5171C25.2942 67.8343 26.3727 66.3199 27.7058 65.0525C29.4357 63.4079 31.5439 62.2272 33.8542 61.6091C36.1646 60.9911 38.6099 60.9536 40.9858 61.4999C43.3616 62.0461 45.599 63.1602 47.5107 64.749C49.4225 66.3378 50.9532 68.3551 51.9748 70.6323C52.9964 72.9096 53.4792 75.3805 53.3828 77.8385C53.2865 80.2965 52.6138 82.6703 51.4211 84.7612C50.4989 86.3779 49.2865 87.7892 47.8488 88.9276C47.1486 89.482 46.909 90.4723 47.3805 91.2308V91.2308Z" fill="#B6DBFF"/>
</g>
<g filter="url(#filter2_i_383_392)">
<path fill-rule="evenodd" clip-rule="evenodd" d="M43.7734 26.5101C43.924 25.6072 43.2467 24.7706 42.3339 24.8391C41.8804 24.8731 41.4311 24.9276 40.9871 25.0019C40.744 25.0425 40.6056 25.2988 40.6975 25.5275V25.5275C41.0886 26.5014 40.6188 27.6142 39.6482 28.0132C38.6776 28.4121 37.5736 27.9461 37.1825 26.9723V26.9723C37.0365 26.609 36.6126 26.444 36.2686 26.6311C35.5129 27.0421 34.793 27.5165 34.1168 28.0485C33.9511 28.1788 33.9449 28.4259 34.1001 28.5687V28.5687C34.8752 29.2822 34.9304 30.4937 34.2233 31.2746C33.5162 32.0556 32.3147 32.1104 31.5395 31.3969V31.3969C31.3568 31.2287 31.068 31.2571 30.9282 31.4623C30.3727 32.2773 29.8917 33.1524 29.4968 34.0793C29.1283 34.9442 29.7155 35.8801 30.6425 36.0363V36.0363C31.6842 36.2118 32.3863 37.1984 32.2109 38.2401C32.0354 39.2817 31.0487 39.9838 30.0071 39.8083V39.8083C29.0857 39.6531 28.2306 40.343 28.2985 41.2749C28.3435 41.8916 28.4254 42.5003 28.5424 43.0983C28.6561 43.6797 29.306 43.955 29.826 43.671V43.671C30.7499 43.1664 31.9014 43.5098 32.3979 44.4381C32.8945 45.3664 32.5481 46.528 31.6242 47.0326V47.0326C30.887 47.4353 30.6186 48.3698 31.1064 49.0536C31.2599 49.269 31.4191 49.4803 31.5835 49.6873C31.9698 50.1736 32.6955 50.1642 33.1076 49.6996V49.6996C33.8042 48.9145 35.0007 48.8479 35.78 49.5509C36.5594 50.2538 36.6266 51.4601 35.93 52.2452V52.2452C35.5735 52.647 35.6591 53.2738 36.1296 53.5329C36.6376 53.8124 37.1646 54.064 37.7091 54.2853C38.4142 54.5719 39.1719 54.0973 39.297 53.3465V53.3465C39.4692 52.314 40.4459 51.6165 41.4784 51.7887C42.511 51.9608 43.2085 52.9375 43.0363 53.9701V53.9701C42.9111 54.7207 43.4737 55.4154 44.2336 55.3731C44.901 55.336 45.5598 55.2544 46.2066 55.1309C46.5349 55.0682 46.7137 54.7173 46.585 54.4088V54.4088C46.1809 53.4401 46.6359 52.3209 47.6012 51.9089C48.5665 51.4969 49.6766 51.9482 50.0807 52.9168V52.9168C50.2486 53.3193 50.7264 53.4924 51.1012 53.2694C51.4824 53.0425 51.8537 52.799 52.2139 52.5398C52.759 52.1475 52.8056 51.3707 52.3525 50.875V50.875C51.6424 50.0979 51.6916 48.8867 52.4625 48.1698C53.2334 47.4528 54.4341 47.5016 55.1442 48.2788V48.2788C55.4646 48.6294 56.0278 48.5948 56.2786 48.1913C56.7525 47.4289 57.1631 46.6184 57.5017 45.7661C57.7732 45.0829 57.315 44.3519 56.5901 44.2297V44.2297C55.5484 44.0542 54.8463 43.0675 55.0217 42.0259C55.1972 40.9843 56.1838 40.2821 57.2255 40.4576V40.4576C57.9465 40.5791 58.6147 40.0401 58.5803 39.3097C58.534 38.3304 58.3945 37.3695 58.1692 36.4377C58.0981 36.1436 57.7769 35.9923 57.4998 36.1139V36.1139C56.5351 36.5372 55.4163 36.0956 55.0009 35.1274C54.5855 34.1593 55.0308 33.0312 55.9955 32.6079V32.6079C56.286 32.4804 56.4018 32.1283 56.2325 31.86C55.8377 31.2344 55.3983 30.6383 54.9177 30.0767C54.5707 29.6711 53.9489 29.6913 53.6 30.0952V30.0952C52.9141 30.8894 51.7186 30.9719 50.93 30.2796C50.1413 29.5873 50.0581 28.3822 50.744 27.588V27.588C51.0203 27.2681 50.9431 26.7757 50.5704 26.5762C50.2199 26.3887 49.8605 26.2144 49.4928 26.054C48.6132 25.6705 47.6567 26.2698 47.4989 27.2163V27.2163C47.3267 28.2489 46.35 28.9463 45.3175 28.7742C44.2849 28.602 43.5874 27.6253 43.7596 26.5928L43.7734 26.5101ZM43.1119 41.9789C44.1445 42.1511 45.1224 41.4461 45.2961 40.4041C45.4699 39.3622 44.7737 38.378 43.7411 38.2058C42.7085 38.0336 41.7306 38.7387 41.5569 39.7806C41.3831 40.8225 42.0794 41.8067 43.1119 41.9789Z" fill="url(#paint1_linear_383_392)"/>
</g>
<g filter="url(#filter3_i_383_392)">
<path d="M36.716 55.3627C36.2897 56.1475 36.578 57.137 37.3994 57.4877C39.5379 58.4007 41.8501 58.875 44.209 58.8783C47.1137 58.8824 50.0049 58.1723 52.6408 56.8073C55.2766 55.4424 57.5806 53.4622 59.3601 51.0324C61.1395 48.6026 62.3427 45.7938 62.8691 42.8408C63.3955 39.8878 63.2298 36.8765 62.3858 34.0585C61.5418 31.2405 60.044 28.6977 58.0178 26.6429C55.9915 24.588 53.4956 23.0807 50.7387 22.247C48.4591 21.5576 46.0559 21.3453 43.6679 21.6166C42.8253 21.7123 42.2714 22.5104 42.3988 23.3487V23.3487C42.5348 24.2436 43.3911 24.8351 44.2929 24.7575C46.1384 24.5988 47.988 24.7878 49.7486 25.3202C52.0333 26.0111 54.1017 27.2603 55.7809 28.9632C57.4601 30.6661 58.7014 32.7734 59.4008 35.1087C60.1002 37.444 60.2376 39.9397 59.8014 42.3869C59.3651 44.8341 58.368 47.1618 56.8933 49.1754C55.4186 51.1891 53.5093 52.8301 51.3249 53.9612C49.1405 55.0924 46.7445 55.6809 44.3373 55.6775C42.4761 55.6749 40.65 55.3185 38.9497 54.6314C38.1217 54.2967 37.1424 54.5779 36.716 55.3627V55.3627Z" fill="#B6DBFF"/>
</g>
<g filter="url(#filter4_i_383_392)">
<path fill-rule="evenodd" clip-rule="evenodd" d="M73.6574 52.7228C73.7982 51.8785 73.1654 51.0961 72.3117 51.1578C71.8795 51.1891 71.4513 51.24 71.0284 51.3098C70.8061 51.3465 70.6797 51.581 70.7646 51.7897V51.7897C71.1353 52.7001 70.6973 53.7377 69.7863 54.1071C68.8754 54.4765 67.8364 54.0379 67.4657 53.1274V53.1274C67.3294 52.7927 66.9387 52.6407 66.6202 52.8116C65.9117 53.1917 65.2368 53.6308 64.603 54.1235C64.4425 54.2482 64.4366 54.4867 64.5868 54.6236V54.6236C65.3128 55.2854 65.364 56.4096 64.7011 57.1347C64.0383 57.8597 62.9125 57.911 62.1865 57.2492V57.2492C62.0097 57.0881 61.7318 57.1155 61.5966 57.3128C61.0856 58.058 60.6425 58.8574 60.2775 59.7036C59.9237 60.5239 60.4816 61.4138 61.3626 61.5622V61.5622C62.3308 61.7253 62.9835 62.6425 62.8204 63.6107C62.6573 64.579 61.7401 65.2317 60.7719 65.0685V65.0685C59.8977 64.9213 59.0866 65.5769 59.1559 66.4608C59.1997 67.0197 59.2765 67.5715 59.3846 68.114C59.493 68.6581 60.1007 68.9158 60.589 68.6523V68.6523C61.4536 68.1858 62.5338 68.508 63.0016 69.3719C63.4695 70.2358 63.1478 71.3144 62.2832 71.7809V71.7809C61.5955 72.1519 61.3458 73.0227 61.8029 73.6564C61.9519 73.8628 62.1063 74.0653 62.2661 74.2636C62.6264 74.7108 63.2963 74.7017 63.6794 74.274V74.274C64.3353 73.5418 65.4613 73.4791 66.1944 74.134C66.9275 74.7888 66.9901 75.9132 66.3343 76.6454V76.6454C66.0062 77.0116 66.0845 77.586 66.5158 77.8221C67.0072 78.091 67.5175 78.3324 68.0452 78.5439C68.6896 78.8022 69.3802 78.3691 69.4944 77.6843V77.6843C69.6562 76.7142 70.5737 76.059 71.5437 76.2207C72.5138 76.3825 73.169 77.3 73.0073 78.2701V78.2701C72.893 78.9553 73.4059 79.5895 74.0997 79.5545C74.743 79.5221 75.3777 79.4461 76.0005 79.3291C76.2996 79.2729 76.4626 78.9529 76.3441 78.6726V78.6726C75.9612 77.7672 76.3853 76.7239 77.2912 76.3424C78.1972 75.9609 79.2419 76.3855 79.6247 77.2909V77.2909C79.7816 77.6618 80.222 77.8217 80.5694 77.6181C80.9309 77.4062 81.2828 77.1786 81.6241 76.936C82.135 76.5729 82.1789 75.8468 81.7537 75.3862V75.3862C81.0872 74.6644 81.1329 73.5398 81.8558 72.8744C82.5787 72.2091 83.705 72.2548 84.3714 72.9767V72.9767C84.6749 73.3054 85.2047 73.2727 85.4423 72.8936C85.8796 72.1959 86.2591 71.4547 86.573 70.6756C86.8345 70.0267 86.3989 69.3303 85.7091 69.2141V69.2141C84.7408 69.051 84.0881 68.1339 84.2512 67.1656C84.4144 66.1974 85.3315 65.5447 86.2998 65.7078V65.7078C86.987 65.8236 87.6239 65.3094 87.5882 64.6134C87.5423 63.718 87.4118 62.8392 87.2033 61.9863C87.1348 61.7062 86.8292 61.562 86.5647 61.6766V61.6766C85.6632 62.067 84.6149 61.6532 84.2232 60.7523C83.8315 59.8514 84.2448 58.8046 85.1462 58.4142V58.4142C85.4227 58.2945 85.5329 57.9595 85.3707 57.7056C84.9986 57.1232 84.5846 56.5681 84.1321 56.0451C83.8069 55.6692 83.2285 55.688 82.9019 56.0627V56.0627C82.2558 56.8036 81.1307 56.8813 80.3889 56.2363C79.6471 55.5913 79.5695 54.4678 80.2155 53.7269V53.7269C80.4727 53.4319 80.4014 52.9754 80.0559 52.7916C79.7134 52.6095 79.362 52.4406 79.0021 52.2857C78.1887 51.9358 77.3068 52.4893 77.1612 53.3627V53.3627C76.9994 54.3328 76.0819 54.988 75.1119 54.8263C74.1418 54.6645 73.4866 53.747 73.6483 52.777L73.6574 52.7228ZM73.0663 67.103C74.0363 67.2648 74.9536 66.6108 75.1151 65.6423C75.2766 64.6737 74.6212 63.7575 73.6511 63.5957C72.6811 63.4339 71.7638 64.088 71.6023 65.0565C71.4408 66.025 72.0962 66.9413 73.0663 67.103Z" fill="url(#paint2_linear_383_392)"/>
</g>
<g filter="url(#filter5_i_383_392)">
<path d="M88.7935 58.9656C89.6141 58.6907 90.0628 57.7991 89.7166 57.006C88.7798 54.8599 87.4243 52.914 85.7215 51.281C83.6396 49.2845 81.099 47.8136 78.3123 46.9915C75.5256 46.1693 72.5736 46.0198 69.7033 46.5553C66.8329 47.0909 64.1275 48.296 61.8133 50.0698C59.4991 51.8437 57.6433 54.1348 56.4011 56.7516C55.1588 59.3684 54.5663 62.2348 54.6729 65.1112C54.7796 67.9877 55.5824 70.7905 57.0141 73.2855C58.1922 75.3382 59.7679 77.1335 61.6472 78.5728C62.3226 79.09 63.2792 78.8826 63.7482 78.1729V78.1729C64.2275 77.4475 64.0139 76.4761 63.3348 75.9331C61.885 74.7741 60.6647 73.3542 59.74 71.7429C58.5535 69.6753 57.8882 67.3525 57.7998 64.9687C57.7114 62.585 58.2025 60.2095 59.2319 58.0409C60.2614 55.8723 61.7993 53.9736 63.7172 52.5035C65.635 51.0335 67.877 50.0348 70.2558 49.591C72.6345 49.1472 75.0809 49.2711 77.3903 49.9524C79.6998 50.6338 81.8051 51.8527 83.5305 53.5073C84.8766 54.7982 85.9608 56.325 86.7318 58.0067C87.0924 58.7934 87.9729 59.2404 88.7935 58.9656V58.9656Z" fill="#B6DBFF"/>
</g>
<defs>
<filter id="filter0_i_383_392" x="23.3477" y="61.998" width="30.2358" height="32.8335" filterUnits="userSpaceOnUse" color-interpolation-filters="sRGB">
<feFlood flood-opacity="0" result="BackgroundImageFix"/>
<feBlend mode="normal" in="SourceGraphic" in2="BackgroundImageFix" result="shape"/>
<feColorMatrix in="SourceAlpha" type="matrix" values="0 0 0 0 0 0 0 0 0 0 0 0 0 0 0 0 0 0 127 0" result="hardAlpha"/>
<feOffset dx="2.09412" dy="1.67529"/>
<feGaussianBlur stdDeviation="0.837646"/>
<feComposite in2="hardAlpha" operator="arithmetic" k2="-1" k3="1"/>
<feColorMatrix type="matrix" values="0 0 0 0 0 0 0 0 0 0 0 0 0 0 0 0 0 0 0.25 0"/>
<feBlend mode="normal" in2="shape" result="effect1_innerShadow_383_392"/>
</filter>
<filter id="filter1_i_383_392" x="21.3652" y="57.9238" width="35.1562" height="35.7319" filterUnits="userSpaceOnUse" color-interpolation-filters="sRGB">
<feFlood flood-opacity="0" result="BackgroundImageFix"/>
<feBlend mode="normal" in="SourceGraphic" in2="BackgroundImageFix" result="shape"/>
<feColorMatrix in="SourceAlpha" type="matrix" values="0 0 0 0 0 0 0 0 0 0 0 0 0 0 0 0 0 0 127 0" result="hardAlpha"/>
<feOffset dy="1.67529"/>
<feGaussianBlur stdDeviation="0.837646"/>
<feComposite in2="hardAlpha" operator="arithmetic" k2="-1" k3="1"/>
<feColorMatrix type="matrix" values="0 0 0 0 0 0 0 0 0 0 0 0 0 0 0 0 0 0 0.25 0"/>
<feBlend mode="normal" in2="shape" result="effect1_innerShadow_383_392"/>
</filter>
<filter id="filter2_i_383_392" x="28.2949" y="24.8359" width="31.9624" height="32.2144" filterUnits="userSpaceOnUse" color-interpolation-filters="sRGB">
<feFlood flood-opacity="0" result="BackgroundImageFix"/>
<feBlend mode="normal" in="SourceGraphic" in2="BackgroundImageFix" result="shape"/>
<feColorMatrix in="SourceAlpha" type="matrix" values="0 0 0 0 0 0 0 0 0 0 0 0 0 0 0 0 0 0 127 0" result="hardAlpha"/>
<feOffset dx="2.09412" dy="1.67529"/>
<feGaussianBlur stdDeviation="0.837646"/>
<feComposite in2="hardAlpha" operator="arithmetic" k2="-1" k3="1"/>
<feColorMatrix type="matrix" values="0 0 0 0 0 0 0 0 0 0 0 0 0 0 0 0 0 0 0.25 0"/>
<feBlend mode="normal" in2="shape" result="effect1_innerShadow_383_392"/>
</filter>
<filter id="filter3_i_383_392" x="36.5195" y="21.502" width="26.6504" height="39.0522" filterUnits="userSpaceOnUse" color-interpolation-filters="sRGB">
<feFlood flood-opacity="0" result="BackgroundImageFix"/>
<feBlend mode="normal" in="SourceGraphic" in2="BackgroundImageFix" result="shape"/>
<feColorMatrix in="SourceAlpha" type="matrix" values="0 0 0 0 0 0 0 0 0 0 0 0 0 0 0 0 0 0 127 0" result="hardAlpha"/>
<feOffset dy="1.67529"/>
<feGaussianBlur stdDeviation="0.837646"/>
<feComposite in2="hardAlpha" operator="arithmetic" k2="-1" k3="1"/>
<feColorMatrix type="matrix" values="0 0 0 0 0 0 0 0 0 0 0 0 0 0 0 0 0 0 0.25 0"/>
<feBlend mode="normal" in2="shape" result="effect1_innerShadow_383_392"/>
</filter>
<filter id="filter4_i_383_392" x="59.1523" y="51.1543" width="30.1128" height="30.0776" filterUnits="userSpaceOnUse" color-interpolation-filters="sRGB">
<feFlood flood-opacity="0" result="BackgroundImageFix"/>
<feBlend mode="normal" in="SourceGraphic" in2="BackgroundImageFix" result="shape"/>
<feColorMatrix in="SourceAlpha" type="matrix" values="0 0 0 0 0 0 0 0 0 0 0 0 0 0 0 0 0 0 127 0" result="hardAlpha"/>
<feOffset dx="2.09412" dy="1.67529"/>
<feGaussianBlur stdDeviation="0.837646"/>
<feComposite in2="hardAlpha" operator="arithmetic" k2="-1" k3="1"/>
<feColorMatrix type="matrix" values="0 0 0 0 0 0 0 0 0 0 0 0 0 0 0 0 0 0 0.25 0"/>
<feBlend mode="normal" in2="shape" result="effect1_innerShadow_383_392"/>
</filter>
<filter id="filter5_i_383_392" x="54.6602" y="46.2402" width="35.1738" height="34.2964" filterUnits="userSpaceOnUse" color-interpolation-filters="sRGB">
<feFlood flood-opacity="0" result="BackgroundImageFix"/>
<feBlend mode="normal" in="SourceGraphic" in2="BackgroundImageFix" result="shape"/>
<feColorMatrix in="SourceAlpha" type="matrix" values="0 0 0 0 0 0 0 0 0 0 0 0 0 0 0 0 0 0 127 0" result="hardAlpha"/>
<feOffset dy="1.67529"/>
<feGaussianBlur stdDeviation="0.837646"/>
<feComposite in2="hardAlpha" operator="arithmetic" k2="-1" k3="1"/>
<feColorMatrix type="matrix" values="0 0 0 0 0 0 0 0 0 0 0 0 0 0 0 0 0 0 0.25 0"/>
<feBlend mode="normal" in2="shape" result="effect1_innerShadow_383_392"/>
</filter>
<linearGradient id="paint0_linear_383_392" x1="40.1618" y1="62.5298" x2="35.1405" y2="92.6426" gradientUnits="userSpaceOnUse">
<stop stop-color="#306E96"/>
<stop offset="1" stop-color="#0D3C6B"/>
</linearGradient>
<linearGradient id="paint1_linear_383_392" x1="45.9152" y1="25.3963" x2="41.0016" y2="54.863" gradientUnits="userSpaceOnUse">
<stop stop-color="#306E96"/>
<stop offset="1" stop-color="#0D3C6B"/>
</linearGradient>
<linearGradient id="paint2_linear_383_392" x1="75.6728" y1="51.6817" x2="71.104" y2="79.0801" gradientUnits="userSpaceOnUse">
<stop stop-color="#306E96"/>
<stop offset="1" stop-color="#0D3C6B"/>
</linearGradient>
</defs>
</svg>
